<?xml version="1.0" encoding="utf-8"?>
<!-- Generator: Adobe Illustrator 19.0.0, SVG Export Plug-In . SVG Version: 6.00 Build 0)  -->
<svg version="1.1" id="Layer_1" xmlns="http://www.w3.org/2000/svg" xmlns:xlink="http://www.w3.org/1999/xlink" x="0px" y="0px"
	 viewBox="-2061 286.7 414 828.3" style="enable-background:new -2061 286.7 414 828.3;" xml:space="preserve">
<style type="text/css">
	.st0{fill:#FFFFFF;}
	.st1{fill:#F3FF9B;}
	.st2{font-family:'SequelSans-RomanHead';}
	.st3{font-size:60px;}
	.st4{fill:none;}
	.st5{font-family:'SuperclarendonRg';}
	.st6{font-size:14px;}
	.st7{letter-spacing:30;}
	.st8{enable-background:new    ;}
	.st9{letter-spacing:31;}
	.st10{font-size:8px;}
	.st11{letter-spacing:33;}
	.st12{fill:none;stroke:#000000;stroke-miterlimit:10;}
	.st13{font-size:26px;}
	.st14{font-size:7px;}
	.st15{fill:#81ECEC;}
	.st16{fill:#0984E3;}
</style>
<image style="overflow:visible;enable-background:new    ;" width="803" height="1200" xlink:href="../A_Brief_Inquiry_into_Online_Relationships.png"  transform="matrix(0.5156 0 0 0.6903 -2061 286.689)">
</image>
<rect x="-2022.2" y="425.5" class="st0" width="333.3" height="48.7"/>
<text transform="matrix(1 0 0 1 -2022.1665 468.929)" class="st1 st2 st3">CHROMIAK</text>
<text transform="matrix(1 0 0 1 -2022.1997 531.5958)" class="st1 st2 st3">CHROMIAK</text>
<rect x="-2042" y="822.7" class="st4" width="321.3" height="118"/>
<text transform="matrix(1 0 0 1 -2042.0002 833.4798)" class="st5 st6 st7"> </text>
<text transform="matrix(1 0 0 1 -2006.0002 833.4798)" class="st5 st6">Junior Web Developer is where I </text>
<text transform="matrix(1 0 0 1 -2042.0002 850.2798)" class="st5 st6">am at this point in your life. I enjoy the </text>
<text transform="matrix(1 0 0 1 -2042.0002 867.0798)" class="st5 st6">minute details everyday life. Things </text>
<text transform="matrix(1 0 0 1 -2042.0002 883.8798)" class="st5 st6">that are unimportant to most are care</text>
<text transform="matrix(1 0 0 1 -1740.3003 883.8798)" class="st5 st6">-</text>
<text transform="matrix(1 0 0 1 -2042.0002 900.6798)" class="st5 st6">fully considered whenever I create.</text>
<rect x="-1950" y="933.4" class="st4" width="265.3" height="81.3"/>
<rect x="-2042" y="940.7" class="st4" width="310" height="141.3"/>
<text transform="matrix(1 0 0 1 -2042 951.4796)" class="st5 st6 st7"> </text>
<text transform="matrix(1 0 0 1 -2006 951.4796)" class="st5 st6">So, why did I choose to become a </text>
<text transform="matrix(1 0 0 1 -2042 968.2796)" class="st8"><tspan x="0" y="0" class="st5 st6">web devloper instead of UI designer or </tspan><tspan x="0" y="16.8" class="st5 st6">something</tspan></text>
<text transform="matrix(1 0 0 1 -2042 985.0796)" class="st8"><tspan x="0" y="0" class="st5 st6 st9">		</tspan><tspan x="72" y="0" class="st5 st6">   artsy?  I enjoy coding more </tspan></text>
<text transform="matrix(1 0 0 1 -2042 1001.8796)" class="st5 st6">than drawing. </text>
<text transform="matrix(1 0 0 1 -2042 1028.2795)" class="st5 st10 st11"> </text>
<text transform="matrix(1 0 0 1 -2042 1037.8796)" class="st5 st10 st11"> </text>
<text transform="matrix(1 0 0 1 -2042 1066.6797)" class="st5 st10">How could I forget? </text>
<text transform="matrix(1 0 0 1 -2042 1076.2795)" class="st5 st10">I nack and lower back pain</text>
<line class="st12" x1="-1991.7" y1="688.7" x2="-1716.3" y2="688.7"/>
<rect x="-1711" y="758.7" class="st4" width="23.7" height="139"/>
<text transform="matrix(0 1 -1 0 -1706.1563 758.7003)" class="st2 st13">ABOUT ME</text>
<rect x="-1707" y="892.7" class="st4" width="8" height="212.7"/>
<text transform="matrix(0 1 -1 0 -1706.1563 894.6797)" class="st2 st14">If you want to know more, you have to meet me.</text>
<rect x="-1983.5" y="325.7" class="st0" width="37.5" height="48"/>
<rect x="-1965.6" y="325.7" class="st0" width="304.8" height="72"/>
<text transform="matrix(1 0 0 1 -2012.5833 369.14)" class="st15 st2 st3">CAMERON</text>
<text transform="matrix(1 0 0 1 -2000.5833 369.1404)" class="st1 st2 st3">CAMERON</text>
<text transform="matrix(1 0 0 1 -2020.7 499.5958)" class="st16 st2 st3">CHROMIAK</text>
</svg>
