<?xml version="1.0" encoding="utf-8"?>
<!-- Generator: Adobe Illustrator 19.0.0, SVG Export Plug-In . SVG Version: 6.00 Build 0)  -->
<svg version="1.1" id="Layer_1" xmlns="http://www.w3.org/2000/svg" xmlns:xlink="http://www.w3.org/1999/xlink" x="0px" y="0px"
	 viewBox="0 0 414 828.3" enable-background="new 0 0 414 828.3" xml:space="preserve">
<image overflow="visible" width="803" height="1200" xlink:href="A_Brief_Inquiry_into_Online_Relationships.png"  transform="matrix(0.5 0 0 0.5 4.75 138.789)">
</image>
<rect x="38.8" y="138.8" fill="#FFFFFF" width="333.3" height="48.7"/>
<text transform="matrix(1 0 0 1 38.8335 182.229)" font-family="'SequelSans-RomanHead'" font-size="60px">CHROMIAK</text>
<rect x="40.3" y="300.7" fill="#FFFFFF" width="333.3" height="48.7"/>
<text transform="matrix(1 0 0 1 40.3335 344.1066)" font-family="'SequelSans-RomanHead'" font-size="60px">CHROMIAK</text>
<rect x="38.8" y="146.5" fill="#FFFFFF" width="333.3" height="48.7"/>
<text transform="matrix(1 0 0 1 38.8335 189.8957)" font-family="'SequelSans-RomanHead'" font-size="60px">CHROMIAK</text>
<rect x="38.8" y="291.1" fill="#FFFFFF" width="333.3" height="48.7"/>
<text transform="matrix(1 0 0 1 38.8335 334.5623)" font-family="'SequelSans-RomanHead'" font-size="60px">CHROMIAK</text>
<rect x="38.8" y="159.8" fill="#FFFFFF" width="333.3" height="48.7"/>
<text transform="matrix(1 0 0 1 38.8335 203.229)" font-family="'SequelSans-RomanHead'" font-size="60px">CHROMIAK</text>
<rect x="38.8" y="266.8" fill="#FFFFFF" width="333.3" height="48.7"/>
<text transform="matrix(1 0 0 1 38.8335 310.229)" font-family="'SequelSans-RomanHead'" font-size="60px">CHROMIAK</text>
<rect x="38.8" y="184.1" fill="#FFFFFF" width="333.3" height="48.7"/>
<text transform="matrix(1 0 0 1 38.8335 227.5623)" font-family="'SequelSans-RomanHead'" font-size="60px">CHROMIAK</text>
<rect x="39" y="247.1" fill="#FFFFFF" width="333.3" height="48.7"/>
<text transform="matrix(1 0 0 1 39.0002 290.5623)" font-family="'SequelSans-RomanHead'" font-size="60px">CHROMIAK</text>
<rect x="38.8" y="208.5" fill="#FFFFFF" width="333.3" height="48.7"/>
<text transform="matrix(1 0 0 1 38.8335 251.8957)" font-family="'SequelSans-RomanHead'" font-size="60px">CHROMIAK</text>
<rect x="19" y="536" fill="none" width="321.3" height="118"/>
<text transform="matrix(1 0 0 1 18.9998 546.7798)"><tspan x="0" y="0" font-family="'SuperclarendonRg'" font-size="14px" letter-spacing="31">	</tspan><tspan x="36" y="0" font-family="'SuperclarendonRg'" font-size="14px">Junior Web Developer is where I </tspan><tspan x="0" y="16.8" font-family="'SuperclarendonRg'" font-size="14px">am at this point in your life. I enjoy the </tspan><tspan x="0" y="33.6" font-family="'SuperclarendonRg'" font-size="14px">minute details everyday life. Things </tspan><tspan x="0" y="50.4" font-family="'SuperclarendonRg'" font-size="14px">that are unimportant to most are care</tspan><tspan x="301.7" y="50.4" font-family="'SuperclarendonRg'" font-size="14px">-</tspan><tspan x="0" y="67.2" font-family="'SuperclarendonRg'" font-size="14px">fully considered whenever I create.</tspan></text>
<rect x="111" y="646.7" fill="none" width="265.3" height="81.3"/>
<rect x="19" y="654" fill="none" width="310" height="141.3"/>
<text transform="matrix(1 0 0 1 19 664.7796)"><tspan x="0" y="0" font-family="'SuperclarendonRg'" font-size="14px" letter-spacing="31">	</tspan><tspan x="36" y="0" font-family="'SuperclarendonRg'" font-size="14px">So, why did I choose to become a </tspan><tspan x="0" y="16.8" font-family="'SuperclarendonRg'" font-size="14px">web devloper instead of an architect </tspan><tspan x="0" y="33.6" font-family="'SuperclarendonRg'" font-size="14px">or psychologist? I enjoy coding more </tspan><tspan x="0" y="50.4" font-family="'SuperclarendonRg'" font-size="14px">than drawing. </tspan><tspan x="0" y="76.8" font-family="'SuperclarendonRg'" font-size="8px" letter-spacing="33">	</tspan><tspan x="0" y="86.4" font-family="'SuperclarendonRg'" font-size="8px" letter-spacing="33">	</tspan><tspan x="0" y="115.2" font-family="'SuperclarendonRg'" font-size="8px">How could I forget? </tspan><tspan x="0" y="124.8" font-family="'SuperclarendonRg'" font-size="8px"> I also love destroying my neck and lower back.</tspan></text>
<line fill="none" stroke="#000000" stroke-miterlimit="10" x1="69.3" y1="402" x2="344.7" y2="402"/>
<rect x="350" y="472" fill="none" width="23.7" height="139"/>
<text transform="matrix(0 1 -1 0 354.8438 472.0002)" font-family="'SequelSans-RomanHead'" font-size="26px">ABOUT ME</text>
<rect x="354" y="606" fill="none" width="8" height="212.7"/>
<text transform="matrix(0 1 -1 0 356.9326 606.0001)" font-family="'SequelSans-RomanHead'" font-size="7px">If you want to know more you have to interview me</text>
<rect x="4.7" y="39" fill="#FFFFFF" width="47.2" height="48"/>
<text transform="matrix(1 0 0 1 4.7502 82.4399)" font-family="'SequelSans-RomanHead'" font-size="60px">C</text>
<rect x="19.4" y="39" fill="#FFFFFF" width="47.2" height="48"/>
<text transform="matrix(1 0 0 1 19.4168 82.4399)" font-family="'SequelSans-RomanHead'" font-size="60px">C</text>
<rect x="42.3" y="39" fill="#FFFFFF" width="47.2" height="48"/>
<text transform="matrix(1 0 0 1 42.3335 82.4399)" font-family="'SequelSans-RomanHead'" font-size="60px">C</text>
<rect x="67.8" y="39" fill="#FFFFFF" width="47.2" height="48"/>
<text transform="matrix(1 0 0 1 67.7502 82.4399)" font-family="'SequelSans-RomanHead'" font-size="60px">C</text>
<rect x="95.4" y="39" fill="#FFFFFF" width="304.8" height="72"/>
<text transform="matrix(1 0 0 1 95.4167 82.4399)" font-family="'SequelSans-RomanHead'" font-size="60px">CAMERON</text>
</svg>
